{"asset":{"version":"2.0","generator":"GoldGoblins authored item fixture"},"scene":0,"scenes":[{"nodes":[0]}],"nodes":[{"name":"GGIronSaber","mesh":0}],"meshes":[{"name":"GGIronSaberMesh","primitives":[{"attributes":{"POSITION":0},"indices":1,"material":0}]}],"materials":[{"name":"GGIronSaberMaterial","pbrMetallicRoughness":{"baseColorFactor":[0.32,0.42,0.54,1.0],"metallicFactor":0.2,"roughnessFactor":0.55}}],"buffers":[{"byteLength":168,"uri":"data:application/octet-stream;base64,"}],"bufferViews":[{"buffer":0,"byteOffset":0,"byteLength":96,"target":34962},{"buffer":0,"byteOffset":96,"byteLength":72,"target":34963}],"accessors":[{"bufferView":0,"componentType":5126,"count":8,"type":"VEC3","min":[-0.5,-1.0,-0.12],"max":[0.5,1.0,0.12]},{"bufferView":1,"componentType":5123,"count":36,"type":"SCALAR","min":[0],"max":[7]}]}
